<?xml version="1.0" encoding="utf-8"?>
<!-- Generator: Adobe Illustrator 27.5.0, SVG Export Plug-In . SVG Version: 6.00 Build 0)  -->
<svg version="1.1" id="Lag_1" xmlns="http://www.w3.org/2000/svg" xmlns:xlink="http://www.w3.org/1999/xlink" x="0px" y="0px"
	 viewBox="0 0 1688 1688" style="enable-background:new 0 0 1688 1688;" xml:space="preserve">
<g>
	<path d="M843.67,885.68c-204.09,0.31-369.84-168.75-365.29-374.49c4.3-194.28,164.86-357.95,368.05-356.93
		c196.41,0.99,363.83,161.26,363.27,367.13C1209.17,722.71,1045.04,886.07,843.67,885.68z M843.88,856.11
		c185.73,0,336.17-149.99,336.3-335.29c0.13-186.53-150.54-337.52-336.24-336.96c-186.47,0.57-335.99,150.02-336.06,335.91
		C507.82,705.93,657.85,856.11,843.88,856.11z"/>
	<path d="M775.33,724.91c0-2.99,0-5.46,0-8.34c14.68,0,29.14,0,43.85,0c0-18.78,0-37.15,0-55.98c-1.72,0-3.2,0.01-4.68,0
		c-20.22-0.08-40.47,0.52-60.65-0.42c-25.46-1.18-49.41-8.17-69.72-24.26c-21.32-16.88-30.13-39.35-26.82-66.3
		c3.72-30.24,22.27-48.52,49.4-59.24c7.71-3.05,15.89-4.9,23.86-7.29c1.02-0.31,2.05-0.56,3.18-0.87
		c-8.13-2.41-16.17-4.39-23.92-7.17c-21.38-7.68-38.5-21.01-50.61-40.28c-18.63-29.63-18.44-60.73-4.23-91.55
		c9.38-20.34,26.71-33.16,47.6-41.04c18.37-6.93,37.51-9,56.94-9.03c49.92-0.09,99.84-0.03,149.76-0.03c1.11,0,2.23,0,3.59,0
		c0,2.76,0,5.23,0,8.21c-14.64,0-29.33,0-44.19,0c0,18.9,0,37.3,0,56.26c1.51,0,2.96-0.01,4.42,0c21.48,0.2,43.01-0.43,64.42,0.81
		c27.24,1.58,52.27,10.01,72.59,29.26c26.09,24.71,26.84,64.31,10.94,89.12c-9.64,15.04-23.3,25.13-39.86,31.18
		c-8.38,3.06-17.17,5.01-25.78,7.46c-0.58,0.17-1.15,0.39-2.28,0.77c5.25,1.26,9.96,2.24,14.59,3.51
		c29.07,7.98,51.43,24.64,65.81,51.4c6.79,12.63,9.43,26.34,9.34,40.56c-0.11,17.86-3.66,34.89-13.51,50.14
		c-10.53,16.31-25.48,27.05-43.37,34.01c-17.82,6.93-36.46,9.03-55.39,9.07c-50.8,0.1-101.61,0.04-152.41,0.04
		C777.35,724.91,776.49,724.91,775.33,724.91z M818.23,321.44c-3.78,0-7.29-0.07-10.79,0.01c-20.7,0.47-41.46,0.08-62.07,1.73
		c-18.51,1.48-32.21,11.47-39.94,28.91c-6.15,13.88-8.34,28.48-8.74,43.5c-0.54,20.51-0.53,40.99,5.92,60.76
		c4.25,13.01,11.12,24.25,23.31,31.58c10.08,6.06,21.17,8.25,32.61,8.47c19.2,0.37,38.41,0.18,57.61,0.2c0.7,0,1.39-0.27,1.98-0.39
		c0-36.83,0-73.42,0-110.43c-14.42,0-28.61,0-42.77,0c0-2.9,0-5.37,0-8.32c14.41,0,28.6,0,42.88,0
		C818.23,358.68,818.23,340.37,818.23,321.44z M870.06,716.28c22.14,0,43.86,0.46,65.56-0.19c11.68-0.35,22.95-3.73,32.54-11.02
		c11.76-8.93,17.11-21.76,20.01-35.53c5.24-24.87,4.65-49.96,0.61-74.94c-1.91-11.82-6.06-23.02-13.39-32.62
		c-10.32-13.52-24.86-19.29-41.26-19.87c-20.7-0.73-41.43-0.45-62.14-0.58c-0.59,0-1.19,0.21-1.83,0.33c0,36.74,0,73.31,0,110.36
		c14.42,0,28.61,0,42.77,0c0,2.97,0,5.45,0,8.44c-14.4,0-28.58,0-42.85,0C870.06,679.47,870.06,697.76,870.06,716.28z M818.2,504.97
		c-17.68,0-34.97-0.13-52.26,0.07c-6.16,0.07-12.38,0.5-18.46,1.49c-14.59,2.38-25.62,9.8-32.35,23.39
		c-5.5,11.11-7.66,22.89-8.41,35.07c-1.03,16.7-1.21,33.4,3.34,49.65c3.47,12.41,9.43,23.51,21.04,30.36
		c8.12,4.79,17.19,6.74,26.48,6.88c19.45,0.31,38.9,0.17,58.35,0.2c0.71,0,1.43-0.16,2.26-0.25
		C818.2,602.88,818.2,554.17,818.2,504.97z M870.19,386.51c0,48.65,0,97.45,0,146.53c16.3,0,32.33,0.08,48.35-0.04
		c6.43-0.05,12.91-0.1,19.26-0.97c11.65-1.58,22.15-5.65,29.79-15.39c6.92-8.82,10.34-19,12.27-29.77
		c2.7-15.03,2.22-30.22,1.32-45.34c-0.39-6.48-1.83-13.01-3.61-19.28c-6.09-21.48-20.05-34.53-42.7-35.52
		C913.46,385.77,891.97,386.51,870.19,386.51z"/>
</g>
<g>
	<path d="M162.18,1116.17c-3.54,10.15-7.07,20.31-10.62,30.46c-4.23,12.1-8.49,24.18-12.71,36.29c-2.72,7.79-5.37,15.59-8.08,23.38
		c-0.66,1.9-1.43,3.75-2.1,5.65c-0.36,1.01-0.89,1.5-2.06,1.47c-1.12-0.03-1.45-0.66-1.75-1.51c-4.38-12.54-8.77-25.08-13.17-37.61
		c-6.25-17.81-12.52-35.62-18.77-53.43c-0.49-1.39-0.92-2.81-1.49-4.56c0,31.84,0,63.31,0,94.99c0.6,0,1.14,0,1.67,0
		c2.78,0,5.56,0,8.35,0c0.3,0,0.6-0.04,0.9,0.01c0.73,0.11,1.74,0.01,1.71,1.1c-0.03,0.99-0.98,0.97-1.68,0.97
		c-8.39,0.02-16.78,0.02-25.17,0.01c-0.3,0-0.68,0.03-0.87-0.13c-0.34-0.31-0.78-0.75-0.78-1.13c0-0.27,0.65-0.77,1.02-0.78
		c2.48-0.07,4.96-0.04,7.45-0.04c1.27,0,2.55,0,4.05,0c0-33.58,0-67.02,0-100.66c-0.52,0-0.98,0-1.43,0c-3.04,0-6.08,0.01-9.12-0.01
		c-0.5,0-1.06-0.05-1.48-0.28c-0.29-0.16-0.55-0.71-0.5-1.03c0.04-0.29,0.51-0.58,0.85-0.72c0.29-0.12,0.67-0.04,1.02-0.04
		c8.86,0,17.72,0.01,26.58-0.02c0.92,0,1.36,0.17,1.72,1.17c8.78,24.58,17.62,49.15,26.44,73.71c0.47,1.32,0.91,2.65,1.39,4.07
		c0.11-0.2,0.25-0.41,0.33-0.64c7.99-23.05,15.97-46.1,23.95-69.15c0.96-2.79,1.9-5.58,2.92-8.35c0.13-0.35,0.67-0.77,1.03-0.77
		c9.2-0.04,18.41-0.03,27.61-0.03c0.74,0,1.44,0.12,1.39,1.08c-0.05,0.9-0.68,1.02-1.46,1.02c-3.17-0.03-6.34-0.01-9.5-0.01
		c-0.46,0-0.92,0-1.5,0c0,1.05,0,1.97,0,2.9c0,32.15,0,64.29-0.03,96.44c0,0.98,0.22,1.36,1.28,1.34c3.29-0.06,6.59-0.04,9.89-0.01
		c1.17,0.01,1.72,0.81,1.12,1.6c-0.22,0.29-0.79,0.45-1.2,0.46c-2.44,0.04-4.88,0.02-7.32,0.02c-9.97,0-19.95,0-29.92,0
		c-0.47,0-1.01,0.1-1.39-0.09c-0.46-0.23-0.79-0.74-1.17-1.12c0.44-0.29,0.88-0.83,1.33-0.84c2.87-0.08,5.73-0.04,8.6-0.04
		c0.9,0,1.79,0,2.82,0c0-31.75,0-63.44,0-95.13C162.27,1116.16,162.23,1116.16,162.18,1116.17z"/>
	<path d="M600.29,1198.94c-4.69,4.24-9.94,7.52-15.45,10.38c-8.5,4.41-17.53,6.42-27.1,5.96c-4.23-0.2-8.34-0.96-12.13-2.88
		c-7.27-3.7-11.51-9.53-12.42-17.77c-1.19-10.75,2.31-19.74,9.8-27.37c6.35-6.47,13.91-11.17,21.92-15.24
		c1.05-0.54,2.13-1.03,3.31-1.6c-1.65-2.45-3.37-4.84-4.92-7.33c-1.55-2.49-3.52-4.93-4.28-7.67c-3.04-10.91,1.88-20.91,11.65-25.35
		c6.18-2.81,12.54-2.9,19.08-1.46c3.35,0.74,6.13,2.38,8.64,4.54c3.73,3.21,4.41,7.56,4.11,12.16c-0.39,6.22-3.47,10.94-8.47,14.41
		c-3.44,2.39-7.03,4.56-10.58,6.78c-0.59,0.37-0.83,0.55-0.36,1.24c3.25,4.82,6.48,9.66,9.68,14.51c4.87,7.4,9.71,14.81,14.56,22.22
		c0.35,0.53,0.68,1.08,1.1,1.74c9.35-9.32,15.42-20.3,18.08-33.38c-0.59-0.03-1.04-0.07-1.48-0.07c-3.64-0.01-7.28-0.06-10.91,0.03
		c-1.5,0.04-1.32-0.82-1.39-1.81c-0.08-1.15,0.53-1.1,1.33-1.1c9.46,0.02,18.92,0.05,28.38-0.03c1.43-0.01,1.29,0.67,1.36,1.62
		c0.08,1.09-0.35,1.3-1.32,1.29c-3.51-0.03-7.02,0-10.53,0.01c-0.46,0-0.93,0-1.18,0c-0.99,3.64-1.81,7.17-2.9,10.61
		c-3.18,9.98-8.94,18.41-16.07,25.95c-0.65,0.69-0.62,1-0.1,1.77c4.25,6.26,8.45,12.56,12.61,18.89c0.62,0.94,1.27,1.34,2.38,1.33
		c4.24-0.05,8.48-0.04,12.71,0c0.84,0.01,2.09-0.25,2.14,1.01c0.04,1.34-1.23,1.05-2.06,1.05c-9.42,0.02-18.83,0-28.25,0.03
		c-0.91,0-1.34-0.37-1.81-1.08c-2.83-4.33-5.73-8.62-8.61-12.92C600.7,1199.26,600.54,1199.16,600.29,1198.94z M597.73,1194.68
		c-0.1-0.2-0.14-0.32-0.21-0.43c-8.89-13.44-17.79-26.87-26.66-40.33c-0.54-0.82-1-0.8-1.77-0.43c-4.41,2.13-8.55,4.69-12.37,7.73
		c-5.6,4.45-8.57,10.32-8,17.45c0.75,9.41,4.72,17.4,12,23.59c5.14,4.37,11.01,5.16,17.34,3.29
		C585.38,1203.4,591.66,1199.3,597.73,1194.68z M592.62,1125.86c-0.1-0.03-0.2-0.05-0.3-0.08c-0.1-1.32-0.12-2.66-0.31-3.96
		c-1.12-7.44-6.72-13.81-15.61-11.4c-3.31,0.9-6.28,2.49-7.34,5.97c-1.17,3.84-0.98,7.83,1.13,11.3c3.11,5.11,6.57,10.01,9.91,14.97
		c0.17,0.26,0.78,0.52,1.01,0.41c4.2-2.09,8.2-4.52,9.8-9.25C591.77,1131.26,592.07,1128.52,592.62,1125.86z"/>
	<path d="M246.46,1161.63c0.63-18.92,7.66-34.51,22.59-46.12c9.25-7.19,19.84-10.05,31.56-8.77c7.78,0.85,14.44,4.23,20.69,8.67
		c12.85,9.14,19.76,21.98,22.24,37.18c2.25,13.81-0.61,26.87-7.8,38.95c-6.41,10.77-15.48,18.37-27.13,22.88
		c-5.2,2.01-10.65,2.25-16.17,1.93c-13.29-0.77-23.4-7.5-31.84-17.13c-7.33-8.36-11.7-18.23-13.4-29.22
		C246.75,1167.19,246.68,1164.31,246.46,1161.63z M324.47,1160.01c-0.34-6.14-0.61-13.36-1.17-20.56
		c-0.42-5.44-1.81-10.7-4.09-15.68c-2.63-5.77-6.64-10.2-12.78-12.23c-5.29-1.75-10.7-2.37-16.3-1.42
		c-8.51,1.45-14.74,5.66-18.43,13.62c-3.08,6.65-4.51,13.67-4.77,20.87c-0.36,9.83-0.31,19.68-0.2,29.52
		c0.08,7.52,1.18,14.94,3.98,21.97c3.66,9.18,10,15.24,20.09,16.86c10.01,1.61,21.02-1.87,26.98-12.17
		c3.64-6.29,5.15-13.22,5.77-20.31C324.13,1174.04,324.16,1167.57,324.47,1160.01z"/>
	<path d="M1443.72,1110.63c-3.83,0-7.51,0-11.19,0c-0.34,0-0.76,0.12-1.01-0.03c-0.44-0.26-0.99-0.64-1.1-1.07
		c-0.21-0.76,0.37-1,1.09-1c2.78,0.02,5.57,0.01,8.35,0.01c6.08,0,12.16,0,18.24,0.01c0.55,0,1.14,0,1.64,0.19
		c0.31,0.12,0.69,0.6,0.67,0.9c-0.01,0.31-0.42,0.76-0.74,0.86c-0.51,0.17-1.1,0.13-1.65,0.13c-3.63,0.01-7.26,0-10.98,0
		c0,1.47,0,2.82,0,4.17c-0.01,26.63-0.03,53.25-0.04,79.88c0,6.46,0.01,12.92,0.04,19.39c0,0.8-0.17,1.19-1.06,1.15
		c-1.37-0.06-2.74,0.04-4.11-0.06c-0.47-0.03-1.1-0.34-1.34-0.73c-4.75-7.72-9.47-15.47-14.17-23.22
		c-6.08-10.02-12.14-20.05-18.2-30.08c-8.48-14.01-16.96-28.03-25.43-42.05c-0.45-0.74-0.82-1.54-1.41-2.65c0,31.83,0,63.25,0,94.85
		c1.65,0,3.22,0,4.78,0c2.18,0,4.37-0.01,6.55,0.01c0.5,0.01,1.04,0.07,1.5,0.25c0.25,0.1,0.54,0.52,0.51,0.77
		c-0.03,0.32-0.3,0.75-0.58,0.87c-0.41,0.18-0.92,0.18-1.38,0.18c-8.82,0.01-17.64,0.01-26.46-0.01c-0.5,0-1.18-0.15-1.47-0.49
		c-0.62-0.73,0-1.57,1.12-1.58c3.6-0.01,7.19-0.04,10.79,0.02c1.06,0.02,1.38-0.28,1.38-1.36c-0.03-30.99-0.03-61.99-0.03-92.98
		c0-2.05,0-4.09,0-6.33c-0.88,0-1.64,0-2.39,0c-3.21,0-6.42,0-9.63,0c-0.69,0-1.31-0.08-1.39-0.95c-0.08-0.82,0.3-1.15,1.13-1.14
		c2.23,0.03,4.45,0.01,6.68,0.01c7.41,0,14.81,0.02,22.22-0.03c1.12-0.01,1.73,0.34,2.33,1.32c11.66,19.04,23.38,38.04,35.07,57.06
		c3.76,6.12,7.46,12.28,11.19,18.42c0.1,0.16,0.25,0.3,0.5,0.6C1443.72,1160.73,1443.72,1135.75,1443.72,1110.63z"/>
	<path d="M1587.2,1114.84c2.11-2.19,4.17-4.36,6.27-6.49c0.47-0.47,1.06-0.91,1.68-1.11c1.43-0.47,2.22,0.15,2.27,1.64
		c0.05,1.93,0.1,3.85,0.1,5.78c-0.01,7.87-0.04,15.75-0.09,23.62c0,0.68,0.23,1.57-0.83,1.74c-0.93,0.15-1.6-0.3-1.93-1.15
		c-0.75-1.91-1.41-3.85-2.16-5.75c-2.36-5.92-5.2-11.56-9.99-15.95c-5.33-4.88-11.67-7.27-18.86-7.59c-4.88-0.21-9.51,0.7-13.9,2.88
		c-3.51,1.74-6.24,4.34-8.36,7.58c-4.12,6.29-6.21,13.27-6.9,20.71c-1.07,11.49-0.74,23.01-0.45,34.51
		c0.19,7.76,1.37,15.42,4.76,22.56c3.18,6.7,7.85,11.81,15.14,14.04c5.45,1.66,10.98,1.85,16.4-0.03
		c6.58-2.28,10.33-7.14,11.07-13.95c0.62-5.73,0.6-11.52,0.82-17.29c0.04-1.01-0.16-2.03-0.26-3.19c-0.48,0-0.94,0-1.4,0
		c-4.37,0-8.73,0-13.1,0c-0.51,0-1.1,0.08-1.51-0.14c-0.36-0.19-0.67-0.76-0.69-1.17c-0.01-0.24,0.55-0.59,0.92-0.75
		c0.29-0.12,0.67-0.03,1.02-0.03c14.25,0,28.51,0,42.76,0.01c0.6,0,1.22-0.01,1.77,0.17c0.32,0.1,0.78,0.59,0.74,0.85
		c-0.05,0.36-0.45,0.79-0.8,0.95c-0.4,0.18-0.92,0.11-1.39,0.11c-3.3,0.01-6.59,0-9.89,0c-0.46,0-0.91,0-1.24,0
		c-0.24,3.92-0.36,7.67-0.71,11.41c-0.48,5.08-2.18,9.75-5.29,13.83c-5.41,7.12-12.7,11.12-21.38,12.81
		c-8.64,1.68-17.12,1.3-25.31-2.1c-6.46-2.68-11.94-6.8-16.74-11.85c-7.39-7.78-12.29-16.93-14.51-27.4
		c-3.2-15.09-1.03-29.43,6.65-42.85c5.65-9.87,13.51-17.39,24.09-21.83c4.6-1.93,9.39-3.04,14.46-3c4.25,0.03,8.47,0.15,12.6,1.19
		c4.84,1.22,9.05,3.75,13.16,6.49C1586.42,1114.29,1586.66,1114.46,1587.2,1114.84z"/>
	<path d="M428.31,1211.28c0.72,0,1.19,0,1.65,0c7.32,0,14.64,0.06,21.96-0.02c3.52-0.04,7-0.49,10.2-2.14
		c4.16-2.15,6.68-5.79,8.13-10.03c1.56-4.56,2.59-9.29,3.86-13.94c0.24-0.86,0.51-1.72,0.78-2.57c0.22-0.72,0.61-1.16,1.48-1.1
		c0.88,0.06,1.23,0.57,1.3,1.31c0.13,1.35,0.26,2.72,0.27,4.08c0.02,6.24,0.02,12.49-0.03,18.73c-0.01,1.69-0.04,3.42-0.38,5.07
		c-0.37,1.81-1.82,2.59-3.61,2.71c-0.3,0.02-0.6,0.01-0.9,0.01c-23.8,0-47.6,0-71.4,0c-0.47,0-1.02,0.11-1.39-0.09
		c-0.44-0.25-0.73-0.78-1.09-1.19c0.41-0.27,0.81-0.77,1.23-0.77c3.55-0.06,7.11-0.09,10.66-0.01c1.26,0.03,1.55-0.35,1.55-1.58
		c-0.02-30.69,0-61.38,0.02-92.08c0-2.26,0-4.53,0-6.95c-0.56-0.03-1.01-0.07-1.46-0.07c-3.38-0.01-6.76,0-10.14-0.01
		c-0.46,0-1.02,0.03-1.36-0.2c-0.31-0.21-0.54-0.76-0.52-1.14c0.02-0.26,0.5-0.57,0.84-0.7c0.3-0.12,0.68-0.03,1.02-0.03
		c22.6,0,45.2,0,67.8,0c0.51,0,1.03-0.01,1.54,0.04c2.14,0.25,3.05,1.05,3.09,3.19c0.11,6.46,0.11,12.92,0.13,19.39
		c0.01,1.67-0.02,3.34-0.09,5c-0.03,0.72-0.05,1.45-1.15,1.49c-1.06,0.04-1.47-0.48-1.61-1.4c-0.38-2.45-0.65-4.92-1.16-7.35
		c-1.14-5.46-3.28-10.4-7.54-14.25c-3.11-2.81-6.85-3.89-10.84-3.97c-7.36-0.15-14.72-0.05-22.09-0.04c-0.16,0-0.33,0.04-0.6,0.08
		c0,15.34,0,30.64,0,45.9c0.13,0.09,0.2,0.18,0.27,0.17c4.44-0.06,8.91,0.1,13.33-0.27c4.58-0.38,7.15-2.93,8.2-7.41
		c0.49-2.08,0.85-4.19,1.36-6.26c0.19-0.77,0.5-1.56,0.96-2.2c0.63-0.86,1.62-0.62,1.93,0.41c0.13,0.44,0.15,0.93,0.15,1.39
		c0.01,10.66,0.01,21.32,0.01,31.97c0,0.74,0.05,1.48-0.95,1.68c-1.05,0.21-1.4-0.44-1.59-1.23c-0.55-2.23-1.04-4.49-1.61-6.72
		c-0.29-1.11-0.62-2.22-1.08-3.27c-1.43-3.3-4.01-5.06-7.6-5.16c-4.15-0.12-8.3-0.1-12.45-0.17c-0.79-0.01-1.13,0.18-1.12,1.08
		c0.05,14.13,0.06,28.25,0.07,42.38C428.32,1205.7,428.31,1208.4,428.31,1211.28z"/>
	<path d="M1147.35,1206.82c-1.74,2.46-3.43,4.87-5.14,7.26c-0.29,0.41-0.61,0.94-1.03,1.1c-0.72,0.27-1.68,0.61-2.26,0.33
		c-0.55-0.27-1.02-1.28-1.02-1.98c-0.07-9.33-0.05-18.66-0.05-28c0-0.9,0.08-1.75,1.23-1.92c1.15-0.17,1.84,0.23,2.17,1.42
		c1.16,4.21,2.64,8.3,4.9,12.08c4.97,8.35,12.03,14.03,21.59,16.05c12.18,2.57,23.79-2.88,28.75-12.47
		c3.43-6.64,3.64-13.45,0.7-20.3c-1.17-2.71-3.27-4.78-5.95-5.97c-4.4-1.96-8.85-3.85-13.39-5.46c-6.24-2.21-12.62-4-18.86-6.22
		c-7.05-2.5-12.76-6.82-16.24-13.58c-3.99-7.75-3.67-15.77-0.31-23.57c4.53-10.53,12.89-16.31,24.09-18.07
		c5.07-0.8,10.18-0.74,15.2,0.29c2.57,0.52,5.04,1.56,7.51,2.51c1.71,0.66,3.37,1.49,4.96,2.39c0.98,0.56,1.4,0.21,1.96-0.55
		c1.21-1.65,2.54-3.22,3.79-4.85c0.61-0.79,1.45-1.11,2.24-0.63c0.42,0.26,0.68,1.11,0.68,1.7c0.05,9.03,0.05,18.06,0.02,27.09
		c0,0.85,0.36,2.03-1.13,2.15c-1.3,0.11-1.99-0.5-2.19-2.11c-0.47-3.86-1.6-7.52-3.37-10.97c-4.74-9.19-12.26-13.95-22.64-14.17
		c-4.85-0.1-9.45,0.88-13.74,3.11c-10.13,5.28-12.08,18.11-6.21,25.7c1.93,2.49,4.53,3.97,7.41,5.09
		c7.94,3.08,16.17,5.22,24.38,7.43c4.21,1.13,8.24,2.64,11.94,5.13c5.51,3.71,8.89,8.77,10.26,15.1
		c2.97,13.76-0.08,26.02-10.4,35.82c-5.75,5.46-12.89,8.48-21,8.68c-5.76,0.14-11.47-0.06-16.91-2.28
		c-3.95-1.61-7.49-3.93-10.86-6.5C1148.09,1207.4,1147.77,1207.14,1147.35,1206.82z"/>
	<path d="M763.44,1211.28c-1.18-3.55-2.29-6.9-3.4-10.25c-2.13-6.45-4.28-12.89-6.36-19.35c-0.31-0.97-0.79-1.21-1.74-1.2
		c-9.16,0.03-18.32,0.04-27.48-0.01c-1.38-0.01-1.91,0.51-2.3,1.79c-1.49,4.9-3.12,9.76-4.69,14.64c-1.45,4.51-2.89,9.03-4.32,13.55
		c-0.07,0.23-0.05,0.49-0.08,0.83c3.48,0,6.9,0,10.32,0c2.18,0,4.37,0,6.55,0.02c0.65,0.01,1.37,0.02,1.38,0.94
		c0.01,0.88-0.5,1.14-1.33,1.14c-10.87-0.02-21.74-0.01-32.62-0.02c-0.13,0-0.31,0.05-0.38-0.02c-0.4-0.36-1-0.69-1.09-1.13
		c-0.16-0.75,0.45-0.95,1.16-0.95c3.6,0.02,7.19-0.03,10.79,0.03c1.17,0.02,1.7-0.49,2.03-1.5c6.12-18.45,12.25-36.9,18.37-55.35
		c4.97-15,9.94-30.01,14.87-45.02c0.29-0.89,0.82-0.92,1.55-0.91c0.86,0.01,1.6-0.07,1.98,1.08c3.33,10.19,6.71,20.36,10.1,30.54
		c6.34,19.05,12.7,38.09,19.05,57.14c1.35,4.05,2.68,8.11,3.94,12.19c0.4,1.28,0.97,1.89,2.42,1.85c3.29-0.11,6.59-0.04,9.89-0.03
		c0.38,0,0.85-0.08,1.13,0.1c0.33,0.21,0.71,0.68,0.69,1.01c-0.02,0.34-0.47,0.71-0.82,0.94c-0.21,0.14-0.58,0.04-0.88,0.04
		c-14.12,0-28.25,0-42.38,0c-0.39,0-0.84,0.11-1.14-0.05c-0.49-0.27-1.17-0.66-1.25-1.1c-0.17-0.85,0.57-0.94,1.28-0.94
		c4.37,0.01,8.73,0.01,13.1,0.01C762.26,1211.28,762.77,1211.28,763.44,1211.28z M752.45,1178.35c-4.87-14.5-9.67-28.8-14.49-43.14
		c-4.78,14.41-9.51,28.71-14.3,43.14C733.36,1178.35,742.76,1178.35,752.45,1178.35z"/>
	<path d="M912.05,1211.28c-3.41-10.36-6.73-20.48-10.09-30.71c-10.11,0-20.32,0-30.58,0c-3.25,10.14-6.51,20.31-9.85,30.71
		c0.73,0,1.19,0,1.64,0c4.92,0,9.84-0.02,14.77,0.02c0.81,0.01,2.08-0.33,2.12,1c0.04,1.37-1.23,1.05-2.05,1.05
		c-10.61,0.02-21.23,0.02-31.84,0c-0.5,0-1.2-0.13-1.47-0.47c-0.6-0.75,0.01-1.6,1.09-1.6c3.64-0.01,7.28-0.03,10.91,0.01
		c0.85,0.01,1.31-0.22,1.6-1.08c4.56-13.74,9.17-27.47,13.73-41.22c6.38-19.22,12.73-38.44,19.09-57.67
		c0.13-0.41,0.28-0.81,0.42-1.21c0.59-1.64,1.08-1.98,2.75-1.53c0.43,0.11,0.85,0.77,1.02,1.26c2.3,6.8,4.56,13.61,6.82,20.42
		c8.61,25.86,17.21,51.71,25.82,77.57c0.11,0.32,0.21,0.65,0.31,0.98c0.72,2.46,0.72,2.46,3.34,2.46c3,0,5.99-0.02,8.99,0.02
		c0.81,0.01,1.97-0.18,1.98,1.04c0.01,1.26-1.17,1.02-1.97,1.02c-14.3,0.02-28.59,0.01-42.89,0.01c-0.17,0-0.4,0.07-0.5-0.02
		c-0.4-0.34-0.97-0.67-1.08-1.1c-0.2-0.78,0.41-0.98,1.11-0.97c4.32,0.01,8.65,0,12.97,0
		C910.72,1211.28,911.23,1211.28,912.05,1211.28z M901.1,1178.37c-4.86-14.47-9.68-28.81-14.51-43.21
		c-4.75,14.39-9.49,28.73-14.27,43.21C882.09,1178.37,891.5,1178.37,901.1,1178.37z"/>
	<path d="M1008.04,1110.63c-4.1,0-8.07,0-12.05,0c-0.79,0-1.57-0.07-1.4-1.12c0.06-0.36,0.54-0.67,0.87-0.95
		c0.1-0.09,0.33-0.02,0.5-0.02c13.65,0,27.31,0,40.96,0.01c0.64,0,1.51-0.22,1.64,0.77c0.12,0.96-0.38,1.34-1.37,1.33
		c-3.94-0.04-7.88-0.02-11.81-0.02c-0.46,0-0.92,0-1.48,0c0,1.5,0,2.86,0,4.22c0,31.72,0,63.44-0.02,95.15
		c0,1.03,0.3,1.31,1.31,1.31c9.93-0.03,19.86,0.05,29.79-0.06c3.29-0.03,6.56-0.58,9.54-2.19c3.46-1.87,5.75-4.77,7.39-8.27
		c2.18-4.65,3.13-9.66,4.31-14.6c0.28-1.16,0.5-2.35,0.93-3.46c0.18-0.48,0.85-1.13,1.24-1.09c0.55,0.05,1.14,0.59,1.52,1.08
		c0.25,0.32,0.23,0.9,0.23,1.36c0.02,8.47,0.05,16.95,0.02,25.42c0,2.01-1.21,3.37-3.18,3.77c-0.46,0.09-0.93,0.11-1.4,0.11
		c-26.41,0.01-52.82,0-79.23,0c-0.21,0-0.43-0.01-0.64,0c-0.8,0.03-1.18-0.32-1.16-1.15c0.02-0.84,0.5-0.95,1.19-0.94
		c3.72,0.02,7.45-0.02,11.17,0.03c0.96,0.01,1.23-0.28,1.22-1.24c-0.05-27.86-0.07-55.73-0.09-83.59c0-4.96,0.04-9.93,0.06-14.89
		C1008.11,1111.32,1008.07,1111.07,1008.04,1110.63z"/>
	<path d="M1295.2,1110.63c0,2.48,0,4.74,0,7.01c0,28.55,0,57.1,0,85.65c0,2.27,0.1,4.54,0.07,6.8c-0.01,0.97,0.34,1.22,1.27,1.21
		c3.42-0.05,6.85-0.02,10.27-0.01c0.43,0,0.91-0.05,1.26,0.13c0.3,0.15,0.62,0.61,0.61,0.93c-0.01,0.33-0.33,0.75-0.63,0.96
		c-0.24,0.16-0.66,0.07-1,0.07c-13.1,0-26.2,0-39.3,0c-0.17,0-0.34,0-0.51,0c-0.74,0.01-1.25-0.24-1.27-1.09
		c-0.02-0.92,0.55-1.01,1.27-1.01c3.51,0.01,7.02,0.01,10.53,0c1.71,0,1.72,0,1.72-1.66c0.02-30.99,0.04-61.98,0.06-92.97
		c0-1.63-0.02-3.25,0.04-4.88c0.04-0.91-0.29-1.18-1.18-1.16c-3.51,0.04-7.02,0.02-10.53,0.01c-0.38,0-0.87,0.11-1.13-0.08
		c-0.35-0.25-0.69-0.74-0.71-1.14c-0.02-0.27,0.49-0.64,0.83-0.84c0.23-0.13,0.59-0.03,0.89-0.03c12.8,0,25.6,0,38.4,0
		c0.51,0,1.08-0.11,1.53,0.06c0.42,0.16,0.93,0.6,1.01,0.99c0.13,0.69-0.35,1.05-1.1,1.05c-3.12-0.02-6.25-0.01-9.37-0.01
		C1297.23,1110.63,1296.25,1110.63,1295.2,1110.63z"/>
</g>
<g>
	<path d="M973.58,1292.86c-0.22,6.67-1.6,12.11-5.48,16.66c-1.77,2.08-3.94,3.74-6.68,4.23c-2.94,0.52-5.78,0.2-8.35-1.64
		c-3.8-2.71-6.05-6.44-7.24-10.84c-1.94-7.18-1.3-14.12,2.32-20.68c1.5-2.72,3.55-4.96,6.41-6.27c4.63-2.14,8.74-0.85,12.36,2.32
		c3.31,2.9,5.02,6.77,5.91,10.99C973.26,1289.61,973.41,1291.65,973.58,1292.86z M966.53,1293.9c-0.06,0-0.12,0-0.17,0
		c0-2.63,0.05-5.26-0.01-7.89c-0.06-2.58-0.49-5.11-1.49-7.51c-1.05-2.51-3.04-3.68-5.64-3.68c-2.55,0-4.51,1.13-5.65,3.56
		c-1,2.14-1.36,4.42-1.53,6.71c-0.47,6.33-0.54,12.67,0.16,18.99c0.26,2.33,0.71,4.63,2.13,6.59c2.52,3.49,8.08,3.11,10.14-0.67
		c1.05-1.93,1.57-4.04,1.71-6.2C966.38,1300.5,966.42,1297.2,966.53,1293.9z"/>
	<path d="M733,1303.25c0-1.45,0-2.72,0-4c0-7.6,0.01-15.19,0.01-22.79c0-1.13,0-1.13-1.17-1.13c-0.99,0-1.99,0.01-2.98-0.01
		c-0.29-0.01-0.59-0.09-0.88-0.13c-0.01-0.1-0.03-0.21-0.04-0.31c0.29-0.09,0.58-0.26,0.87-0.26c3.39-0.02,6.78-0.02,10.17,0
		c0.25,0,0.49,0.24,0.74,0.37c-0.26,0.11-0.51,0.31-0.78,0.32c-1.17,0.04-2.34,0.08-3.5,0c-0.88-0.06-1.02,0.31-1,1.06
		c0.05,1.58,0.04,3.15,0.04,4.73c-0.01,7.71-0.02,15.43-0.04,23.14c0,3.1,0,6.19,0,9.29c0,0.32,0,0.63,0,1.06
		c-0.76,0-1.46,0.05-2.14-0.03c-0.25-0.03-0.53-0.32-0.68-0.57c-6.65-10.92-13.29-21.84-19.93-32.76c-0.63-1.03-1.26-2.07-1.96-3.22
		c0,2.05,0,3.96,0,5.87c0,9.5,0.02,18.99-0.01,28.49c0,0.69,0.24,0.84,0.86,0.82c1.2-0.04,2.4-0.03,3.59,0
		c0.21,0.01,0.41,0.19,0.61,0.3c-0.21,0.14-0.42,0.39-0.64,0.39c-3.42,0.02-6.84,0.02-10.26,0c-0.21,0-0.41-0.21-0.62-0.32
		c0.22-0.13,0.43-0.37,0.66-0.37c1.14-0.04,2.28-0.06,3.42-0.01c0.74,0.03,0.94-0.24,0.94-0.96c-0.02-9.55-0.01-19.11-0.01-28.66
		c0-2.34,0.01-4.67,0-7.01c0-1.23-0.01-1.23-1.19-1.23c-1.05,0-2.1,0.02-3.15-0.02c-0.22-0.01-0.43-0.24-0.65-0.37
		c0.21-0.11,0.41-0.32,0.62-0.32c3.65-0.02,7.3-0.03,10.96,0.01c0.29,0,0.68,0.31,0.85,0.58c2.59,4.13,5.17,8.27,7.73,12.41
		c2.84,4.59,5.67,9.19,8.5,13.79C732.28,1301.97,732.6,1302.55,733,1303.25z"/>
	<path d="M998.67,1280.24c0.35,0,0.63,0.02,0.92,0c1.49-0.11,2.6,0.53,3.36,1.78c0.72,1.18,0.67,2.38,0.04,3.58
		c-0.59,1.12-2.69,2.08-4.09,1.92c-3.61-0.42-4.58-3.09-3.65-6.39c0.65-2.29,2.28-3.84,4.34-4.92c3.55-1.86,7.36-2.18,11.25-1.67
		c1.54,0.21,3.11,0.6,4.53,1.21c5.58,2.41,6.65,7.93,3.83,12.96c-1.74,3.1-4.3,5.51-6.94,7.83c-4.61,4.05-9.23,8.08-13.84,12.11
		c-0.06,0.05-0.09,0.13-0.18,0.28c0.32,0.01,0.56,0.03,0.81,0.03c4.88,0,9.76-0.01,14.63,0c2.34,0,4.08-0.92,4.93-3.17
		c0.4-1.06,0.7-2.16,1.04-3.24c0.1-0.31,0.09-0.67,0.26-0.92c0.21-0.3,0.57-0.49,0.86-0.73c0.17,0.29,0.49,0.59,0.48,0.88
		c-0.11,3.5-0.27,7-0.43,10.5c-0.02,0.49-0.1,0.98-0.17,1.57c-0.3,0.01-0.61,0.04-0.92,0.04c-8.21,0-16.42-0.01-24.62,0.02
		c-0.87,0-1.02-0.28-1.07-1.09c-0.1-1.47,0.34-2.51,1.49-3.54c4.06-3.65,8.02-7.41,11.97-11.18c1.26-1.21,2.48-2.49,3.53-3.88
		c2.94-3.91,3.61-8.37,2.66-13.05c-0.67-3.29-2.71-4.92-6.05-5.21c-2.48-0.21-4.82,0.28-7,1.49
		C999.34,1278.18,998.73,1279.03,998.67,1280.24z"/>
	<path d="M900.73,1308.96c5.45,0,10.77,0.04,16.08-0.02c1.84-0.02,3.35-0.88,4.09-2.66c0.52-1.26,0.87-2.59,1.3-3.88
		c0.2-0.6,0.17-1.55,1.08-1.45c0.87,0.1,0.55,1.01,0.53,1.53c-0.12,3.76-0.32,7.52-0.5,11.37c-0.42,0.02-0.73,0.05-1.04,0.05
		c-8.21,0-16.42-0.01-24.62,0.02c-0.85,0-1.03-0.26-1.08-1.08c-0.08-1.47,0.33-2.51,1.48-3.55c4.07-3.64,8.02-7.41,11.97-11.18
		c1.26-1.21,2.48-2.49,3.53-3.88c2.88-3.79,3.54-8.15,2.76-12.72c-0.59-3.52-2.75-5.3-6.31-5.57c-2.42-0.18-4.71,0.3-6.82,1.51
		c-1.02,0.59-1.94,1.31-2.03,2.78c0.35,0,0.65,0.01,0.95,0c1.75-0.08,3.32,0.96,3.74,2.56c0.37,1.44,0.08,3.11-1.8,4.12
		c-2.4,1.28-5.46,0.46-6.29-1.91c-0.68-1.94-0.29-3.87,0.81-5.61c1.46-2.3,3.68-3.56,6.21-4.27c4.02-1.13,8.08-1.18,12.07,0.18
		c6.48,2.21,7.89,8.12,4.84,13.47c-1.74,3.06-4.29,5.45-6.9,7.75c-4.6,4.05-9.23,8.08-13.84,12.12
		C900.88,1308.7,900.85,1308.78,900.73,1308.96z"/>
	<path d="M1046.84,1308.96c4.37,0,8.51,0,12.66,0c1.23,0,2.46,0.07,3.68-0.02c1.98-0.15,3.41-1.18,4.13-3.04
		c0.54-1.41,0.94-2.88,1.45-4.3c0.08-0.23,0.45-0.55,0.63-0.52c0.23,0.04,0.49,0.36,0.6,0.62c0.12,0.28,0.11,0.63,0.1,0.95
		c-0.02,0.96-0.04,1.93-0.11,2.89c-0.18,2.74-0.38,5.47-0.58,8.32c-0.28,0.01-0.59,0.04-0.9,0.04c-8.27,0-16.54-0.01-24.8,0.02
		c-0.77,0-0.9-0.23-0.99-0.98c-0.2-1.66,0.49-2.73,1.68-3.81c4.28-3.89,8.48-7.86,12.68-11.84c1.76-1.67,3.36-3.51,4.32-5.79
		c1.41-3.34,1.86-6.79,1.04-10.36c-0.73-3.17-2.64-4.86-5.9-5.16c-2.82-0.27-5.46,0.31-7.81,1.96c-0.76,0.53-1.29,1.24-1.39,2.3
		c0.4,0,0.74,0,1.08,0c1.87-0.03,3.36,1.04,3.66,2.63c0.39,2.07-0.4,3.49-2.32,4.24c-1.69,0.66-3.29,0.51-4.7-0.63
		c-1.43-1.16-1.59-2.74-1.28-4.46c0.43-2.38,1.8-4.08,3.77-5.34c3.05-1.95,6.47-2.51,9.99-2.29c1.98,0.12,4.02,0.46,5.9,1.1
		c5.35,1.83,7.42,7.08,4.99,12.19c-1.41,2.95-3.5,5.38-5.92,7.52c-5.03,4.45-10.11,8.84-15.17,13.26
		C1047.2,1308.55,1047.1,1308.69,1046.84,1308.96z"/>
	<path d="M817.43,1275.32c-1.5,0-2.87,0.02-4.24-0.02c-0.25-0.01-0.49-0.24-0.73-0.37c0.23-0.11,0.46-0.32,0.69-0.32
		c8.68-0.01,17.35-0.02,26.03,0c1.14,0,1.49,0.33,1.51,1.46c0.04,2.86,0.02,5.72,0.04,8.58c0,0.48-0.06,0.87-0.67,0.9
		c-0.66,0.03-0.61-0.46-0.72-0.88c-0.43-1.71-0.7-3.5-1.37-5.12c-1.21-2.92-3.59-4.25-6.73-4.24c-2.48,0.01-4.96,0-7.52,0
		c-0.03,0.28-0.08,0.53-0.08,0.78c-0.03,5.29-0.05,10.57-0.09,15.86c0,0.43,0.07,0.66,0.56,0.64c1.49-0.05,2.98-0.02,4.46-0.12
		c1.61-0.11,2.56-0.94,2.99-2.5c0.26-0.93,0.46-1.87,0.69-2.8c0.1-0.41,0.1-1,0.69-0.88c0.22,0.05,0.47,0.62,0.47,0.96
		c0.03,3.27,0.02,6.54,0.02,9.81c0,0.7,0.07,1.41,0.01,2.1c-0.02,0.25-0.34,0.47-0.52,0.7c-0.23-0.2-0.6-0.36-0.67-0.6
		c-0.27-0.98-0.44-1.99-0.68-2.98c-0.33-1.39-1.26-2.29-2.68-2.36c-1.74-0.09-3.49-0.02-5.31-0.02c0,6.33,0,12.73,0,19.26
		c0.39,0,0.7,0,1.01,0c2.42,0,4.85,0,7.27,0c4.16,0,6.47-1.67,7.69-5.65c0.48-1.59,0.84-3.21,1.21-4.83
		c0.11-0.47,0.22-0.75,0.77-0.71c0.56,0.04,0.76,0.32,0.76,0.85c-0.02,3.15,0,6.31-0.05,9.46c-0.02,1.11-0.37,1.43-1.46,1.59
		c-0.26,0.04-0.52,0.03-0.79,0.03c-8.82,0-17.64,0.01-26.47-0.02c-0.36,0-0.72-0.24-1.08-0.37c0.35-0.11,0.69-0.3,1.04-0.32
		c1.02-0.04,2.05-0.05,3.07,0c0.67,0.03,0.93-0.18,0.93-0.89c-0.03-10.22-0.04-20.45-0.05-30.67c0-1.78,0.03-3.56,0.04-5.35
		C817.48,1276,817.45,1275.71,817.43,1275.32z"/>
	<path d="M621.65,1310.42c-0.59,0.84-1.13,1.63-1.69,2.41c-0.17,0.23-0.35,0.48-0.58,0.65c-0.67,0.49-1.37,0.19-1.4-0.64
		c-0.06-1.78-0.06-3.56-0.07-5.34c-0.01-1.52,0-3.04,0-4.56c0-0.23-0.04-0.52,0.07-0.68c0.19-0.28,0.47-0.6,0.77-0.69
		c0.15-0.05,0.54,0.33,0.65,0.59c0.44,1.01,0.77,2.08,1.22,3.09c1.52,3.42,4.01,5.93,7.55,7.12c5.12,1.73,11.46-0.78,12.64-6.61
		c0.28-1.4,0.07-2.96-0.17-4.41c-0.3-1.79-1.62-2.9-3.23-3.53c-2.63-1.03-5.31-1.93-7.97-2.87c-1.35-0.48-2.72-0.87-4.05-1.4
		c-2.47-0.99-4.45-2.66-5.62-5.04c-1.97-4.02-1.24-7.87,1.36-11.34c2.24-2.99,5.38-4.35,9.09-4.52c3.17-0.15,6.14,0.5,8.93,2.02
		c0.19,0.1,0.63,0,0.79-0.16c0.47-0.48,0.81-1.09,1.29-1.54c0.28-0.26,0.75-0.3,1.14-0.44c0.09,0.31,0.25,0.62,0.25,0.94
		c0.03,3.15,0.05,6.31,0.01,9.46c-0.01,0.48-0.27,1.33-0.51,1.37c-0.77,0.13-0.85-0.66-0.94-1.21c-0.32-2-1.01-3.83-2.26-5.44
		c-3.18-4.09-8.92-4.93-13.35-1.88c-3.06,2.1-3.65,6.43-1.29,9.09c0.7,0.79,1.73,1.44,2.73,1.79c3.03,1.05,6.11,1.95,9.18,2.84
		c2.05,0.59,3.94,1.39,5.53,2.88c1.81,1.7,2.8,3.75,3.03,6.22c0.51,5.38-1.11,9.87-5.54,13.12c-1.94,1.42-4.18,2.13-6.62,2.19
		c-3.21,0.08-6.3-0.31-9.07-2.07C622.89,1311.43,622.32,1310.93,621.65,1310.42z"/>
	<path d="M787.18,1276.43c0.74-0.73,1.38-1.46,2.13-2.05c0.36-0.28,0.93-0.39,1.4-0.38c0.13,0,0.35,0.7,0.36,1.08
		c0.03,3.04,0.04,6.08,0.01,9.11c0,0.31-0.26,0.62-0.39,0.92c-0.34-0.26-0.86-0.46-0.98-0.8c-0.81-2.33-2.03-4.38-3.77-6.14
		c-3.09-3.11-7.86-4.11-11.9-2.51c-2.29,0.91-3.73,2.66-4.73,4.81c-1.28,2.74-1.74,5.69-1.78,8.68c-0.05,3.59-0.08,7.19,0.02,10.78
		c0.08,2.78,0.57,5.5,1.64,8.11c2.08,5.06,7.25,6.82,11.85,5.17c2.66-0.96,4.73-2.67,6.24-5.01c1.05-1.64,1.91-3.4,2.86-5.11
		c0.13-0.23,0.18-0.54,0.37-0.68c0.27-0.21,0.62-0.36,0.95-0.39c0.09-0.01,0.33,0.48,0.33,0.74c0.02,3.59,0.01,7.19-0.02,10.78
		c0,0.3-0.14,0.6-0.22,0.9c-0.35-0.11-0.79-0.12-1.02-0.34c-0.75-0.73-1.44-1.53-2.12-2.32c-0.8-0.94-0.79-0.95-1.68-0.12
		c-4.49,4.14-10.94,4.72-16.48,1.43c-7.37-4.38-12.41-13.79-10.16-23.66c1.11-4.87,3.54-8.94,7.4-12.1
		c5.34-4.37,12.56-5.36,18.99-1.33C786.68,1276.13,786.91,1276.26,787.18,1276.43z"/>
	<path d="M677.38,1275.32c-0.03,0.3-0.06,0.49-0.06,0.69c0,10.22,0,20.45,0.01,30.67c0,1.9,0.06,3.8,0.05,5.7
		c0,0.62,0.2,0.82,0.81,0.8c1.14-0.04,2.28-0.03,3.42,0.01c0.29,0.01,0.58,0.21,0.87,0.32c-0.31,0.13-0.61,0.37-0.92,0.37
		c-2.31,0.03-4.62,0.02-6.92,0.02c-2.57,0-5.14,0.01-7.71-0.01c-0.27,0-0.55-0.19-0.82-0.3c0.27-0.14,0.54-0.38,0.81-0.4
		c1.11-0.05,2.22-0.04,3.33-0.01c0.65,0.02,0.86-0.25,0.86-0.89c-0.01-11.98-0.01-23.95,0.01-35.93c0-0.78-0.21-1.1-1.04-1.05
		c-1.11,0.07-2.22,0.03-3.33,0c-0.21-0.01-0.42-0.2-0.63-0.3c0.21-0.13,0.43-0.39,0.64-0.39c5.05-0.02,10.11-0.02,15.16,0
		c0.19,0,0.38,0.23,0.56,0.36c-0.2,0.12-0.4,0.33-0.61,0.33C680.38,1275.34,678.9,1275.32,677.38,1275.32z"/>
</g>
</svg>
